# xmcd
#
# Track frame offsets:
#	150
#	37691
#	53003
#	85230
#	98871
#	117870
#	141784
#	161725
#	181709
#	198425
#	215092
#	234508
#	248842
#	270920
#	287317
#	311603
#
# Disc length: 4437 seconds
#
# Revision: 0
# Processed by: cddbd v1.5.2PL0 Copyright (c) Steve Scherf et al.
# Submitted via: EasyCDDAExtractor 9.1.3.1
#
DISCID=d0115310
DTITLE=Alabama - Lovin, Livin, Rockin, Rolin: The 25th Anniversary Collection 
DTITLE=[CD1]
DYEAR=2006
DGENRE=Country
TTITLE0=My Home’s In Alabama (Live)
TTITLE1=40 Hour Week (For a Livin’)
TTITLE2=Medley - That Silver Haired Daddy of Mine/Suppertime/Teach Your Childr
TTITLE2=en...(Live in Gumming, GA. 1982)
TTITLE3=High Cotton
TTITLE4=Mountain Music
TTITLE5=Dixieland Delight (Live 1983)
TTITLE6=Carolina Mountain Dew
TTITLE7=Roll On (Eighteen Wheeler)
TTITLE8=If You’re Gonna Play In Texas (Live)
TTITLE9=Christmas In Dixie (Promo Single 1982)
TTITLE10=I Write A Little
TTITLE11=Song Of The South
TTITLE12=Pass It On Down
TTITLE13=Five O’Clock 500
TTITLE14=Tar Top (Live in Knoxville, TN. 1987)
TTITLE15=Dancin', Shaggin' on the Boulevard
EXTD=
EXTT0=
EXTT1=
EXTT2=
EXTT3=
EXTT4=
EXTT5=
EXTT6=
EXTT7=
EXTT8=
EXTT9=
EXTT10=
EXTT11=
EXTT12=
EXTT13=
EXTT14=
EXTT15=
PLAYORDER=
